<svg width="25" height="25" viewBox="0 0 25 25" fill="none" xmlns="http://www.w3.org/2000/svg">
<path d="M24.4255 19.7009C24.4255 19.1987 24.2246 18.6964 23.863 18.3348L17.9568 12.4286L23.863 6.52232C24.2246 6.16071 24.4255 5.65848 24.4255 5.15625C24.4255 4.65402 24.2246 4.15178 23.863 3.79018L21.1309 1.05803C20.7693 0.696427 20.267 0.495534 19.7648 0.495534C19.2626 0.495534 18.7603 0.696427 18.3987 1.05803L12.4925 6.96429L6.58622 1.05803C6.22461 0.696427 5.72238 0.495534 5.22015 0.495534C4.71791 0.495534 4.21568 0.696427 3.85407 1.05803L1.12193 3.79018C0.760324 4.15178 0.559431 4.65402 0.559431 5.15625C0.559431 5.65848 0.760324 6.16071 1.12193 6.52232L7.02818 12.4286L1.12193 18.3348C0.760324 18.6964 0.559431 19.1987 0.559431 19.7009C0.559431 20.2031 0.760324 20.7054 1.12193 21.067L3.85407 23.7991C4.21568 24.1607 4.71791 24.3616 5.22015 24.3616C5.72238 24.3616 6.22461 24.1607 6.58622 23.7991L12.4925 17.8929L18.3987 23.7991C18.7603 24.1607 19.2626 24.3616 19.7648 24.3616C20.267 24.3616 20.7693 24.1607 21.1309 23.7991L23.863 21.067C24.2246 20.7054 24.4255 20.2031 24.4255 19.7009Z" fill="black"/>
</svg>
