<svg width="96" height="32" viewBox="0 0 96 32" fill="none" xmlns="http://www.w3.org/2000/svg">
<path d="M19.5761 15.648C19.7841 15.648 19.9441 15.744 20.0561 15.936C20.1841 16.128 20.2481 16.392 20.2481 16.728C20.2481 17.352 20.0961 17.848 19.7921 18.216C18.8961 19.288 18.0241 20.04 17.1761 20.472C16.3441 20.904 15.3361 21.12 14.1521 21.12C13.3201 21.12 12.5521 21.016 11.8481 20.808C11.1441 20.6 10.2881 20.288 9.28011 19.872C8.36811 19.472 7.48811 19.144 6.64011 18.888C5.82411 20.376 4.60011 21.12 2.96811 21.12C2.07211 21.12 1.36011 20.92 0.832113 20.52C0.288113 20.104 0.0161133 19.576 0.0161133 18.936C0.0161133 18.152 0.392113 17.504 1.14411 16.992C1.89611 16.464 2.89611 16.2 4.14411 16.2H4.45611L4.88811 9.216C4.98411 7.616 5.27211 6.296 5.75211 5.256C6.23211 4.216 6.89611 3.328 7.74411 2.592C8.48011 1.952 9.32011 1.472 10.2641 1.152C11.2081 0.816004 12.2081 0.648004 13.2641 0.648004C14.9921 0.648004 16.3201 1.096 17.2481 1.992C18.1761 2.888 18.6401 4.056 18.6401 5.496C18.6401 6.472 18.4641 7.264 18.1121 7.872C17.7601 8.464 17.2721 8.76 16.6481 8.76C16.2001 8.76 15.8481 8.656 15.5921 8.448C15.3361 8.224 15.2081 7.912 15.2081 7.512C15.2081 7.368 15.2401 7.104 15.3041 6.72C15.4001 6.272 15.4481 5.872 15.4481 5.52C15.4481 4.848 15.2481 4.32 14.8481 3.936C14.4641 3.536 13.8721 3.336 13.0721 3.336C11.6641 3.336 10.5761 3.8 9.80811 4.728C9.04011 5.64 8.55211 7.08 8.34411 9.04801L7.79211 14.496C7.71211 15.264 7.60811 15.928 7.48011 16.488C8.50411 16.664 9.78411 16.944 11.3201 17.328C12.2161 17.552 12.9041 17.712 13.3841 17.808C13.8641 17.904 14.2881 17.952 14.6561 17.952C15.5841 17.952 16.3761 17.8 17.0321 17.496C17.7041 17.176 18.3361 16.672 18.9281 15.984C19.1201 15.76 19.3361 15.648 19.5761 15.648Z" fill="black"/>
<path d="M32.4624 13.632C32.6704 13.632 32.8304 13.736 32.9424 13.944C33.0544 14.152 33.1104 14.416 33.1104 14.736C33.1104 15.504 32.8784 15.96 32.4144 16.104C31.4544 16.44 30.3984 16.632 29.2464 16.68C28.9424 18.024 28.3424 19.104 27.4464 19.92C26.5504 20.72 25.5344 21.12 24.3984 21.12C23.4384 21.12 22.6144 20.888 21.9264 20.424C21.2544 19.96 20.7424 19.344 20.3904 18.576C20.0384 17.808 19.8624 16.976 19.8624 16.08C19.8624 14.864 20.0944 13.784 20.5584 12.84C21.0224 11.88 21.6624 11.136 22.4784 10.608C23.2944 10.064 24.1984 9.792 25.1904 9.792C26.4064 9.792 27.3824 10.216 28.1184 11.064C28.8704 11.896 29.3104 12.928 29.4384 14.16C30.1904 14.112 31.0864 13.952 32.1264 13.68C32.2544 13.648 32.3664 13.632 32.4624 13.632ZM24.5904 18.576C25.1024 18.576 25.5424 18.368 25.9104 17.952C26.2944 17.536 26.5504 16.936 26.6784 16.152C26.1824 15.816 25.7984 15.376 25.5264 14.832C25.2704 14.288 25.1424 13.712 25.1424 13.104C25.1424 12.848 25.1664 12.592 25.2144 12.336H25.0944C24.4544 12.336 23.9184 12.648 23.4864 13.272C23.0704 13.88 22.8624 14.744 22.8624 15.864C22.8624 16.744 23.0304 17.416 23.3664 17.88C23.7184 18.344 24.1264 18.576 24.5904 18.576Z" fill="black"/>
<path d="M43.3386 15.696C43.5466 15.696 43.7066 15.8 43.8186 16.008C43.9466 16.2 44.0106 16.448 44.0106 16.752C44.0106 17.12 43.9546 17.408 43.8426 17.616C43.7306 17.824 43.5546 18.008 43.3146 18.168C41.9386 19.096 40.9306 19.784 40.2906 20.232L38.7546 21.264C38.1466 24.576 37.3466 27.176 36.3546 29.064C35.3786 30.968 34.1305 31.92 32.6105 31.92C31.7945 31.92 31.1305 31.664 30.6185 31.152C30.1065 30.656 29.8505 30 29.8505 29.184C29.8505 28.048 30.2985 26.824 31.1945 25.512C32.0905 24.216 33.7706 22.616 36.2346 20.712L36.3786 19.776C36.1066 20.208 35.7466 20.544 35.2986 20.784C34.8666 21.008 34.4346 21.12 34.0026 21.12C33.0106 21.12 32.2186 20.76 31.6266 20.04C31.0346 19.32 30.7386 18.376 30.7386 17.208C30.7386 15.928 31.0346 14.72 31.6266 13.584C32.2186 12.432 33.0026 11.512 33.9786 10.824C34.9706 10.12 36.0186 9.768 37.1226 9.768C37.4746 9.768 37.7066 9.84 37.8186 9.984C37.9466 10.112 38.0506 10.352 38.1306 10.704C38.4346 10.64 38.7866 10.608 39.1866 10.608C39.5866 10.608 39.8666 10.672 40.0266 10.8C40.2026 10.912 40.2906 11.144 40.2906 11.496C40.2906 11.688 40.2826 11.84 40.2666 11.952C40.2026 12.448 40.0026 13.704 39.6666 15.72C39.6026 16.104 39.5306 16.528 39.4506 16.992C39.3866 17.44 39.3146 17.92 39.2346 18.432C40.4666 17.472 41.6506 16.624 42.7866 15.888C42.9946 15.76 43.1786 15.696 43.3386 15.696ZM34.8666 18.696C35.2346 18.696 35.5866 18.472 35.9226 18.024C36.2586 17.576 36.4986 16.936 36.6426 16.104L37.4106 12C36.7546 12.016 36.1466 12.272 35.5866 12.768C35.0266 13.248 34.5786 13.888 34.2426 14.688C33.9066 15.488 33.7386 16.336 33.7386 17.232C33.7386 17.728 33.8346 18.096 34.0266 18.336C34.2346 18.576 34.5146 18.696 34.8666 18.696ZM32.8745 29.592C33.2745 29.592 33.7226 29.112 34.2186 28.152C34.7306 27.192 35.2186 25.664 35.6826 23.568C34.4506 24.624 33.5626 25.576 33.0186 26.424C32.4746 27.272 32.2026 28.016 32.2026 28.656C32.2026 28.928 32.2505 29.152 32.3465 29.328C32.4585 29.504 32.6345 29.592 32.8745 29.592Z" fill="black"/>
<path d="M54.7749 13.632C54.9829 13.632 55.1429 13.736 55.2549 13.944C55.3669 14.152 55.4229 14.416 55.4229 14.736C55.4229 15.504 55.1909 15.96 54.7269 16.104C53.7669 16.44 52.7109 16.632 51.5589 16.68C51.2549 18.024 50.6549 19.104 49.7589 19.92C48.8629 20.72 47.8469 21.12 46.7109 21.12C45.7509 21.12 44.9269 20.888 44.2389 20.424C43.5669 19.96 43.0549 19.344 42.7029 18.576C42.3509 17.808 42.1749 16.976 42.1749 16.08C42.1749 14.864 42.4069 13.784 42.8709 12.84C43.3349 11.88 43.9749 11.136 44.7909 10.608C45.6069 10.064 46.5109 9.792 47.5029 9.792C48.7189 9.792 49.6949 10.216 50.4309 11.064C51.1829 11.896 51.6229 12.928 51.7509 14.16C52.5029 14.112 53.3989 13.952 54.4389 13.68C54.5669 13.648 54.6789 13.632 54.7749 13.632ZM46.9029 18.576C47.4149 18.576 47.8549 18.368 48.2229 17.952C48.6069 17.536 48.8629 16.936 48.9909 16.152C48.4949 15.816 48.1109 15.376 47.8389 14.832C47.5829 14.288 47.4549 13.712 47.4549 13.104C47.4549 12.848 47.4789 12.592 47.5269 12.336H47.4069C46.7669 12.336 46.2309 12.648 45.7989 13.272C45.3829 13.88 45.1749 14.744 45.1749 15.864C45.1749 16.744 45.3429 17.416 45.6789 17.88C46.0309 18.344 46.4389 18.576 46.9029 18.576Z" fill="black"/>
<path d="M64.6764 15.648C64.8844 15.648 65.0444 15.744 65.1564 15.936C65.2844 16.128 65.3484 16.392 65.3484 16.728C65.3484 17.368 65.1964 17.864 64.8924 18.216C64.2044 19.064 63.4524 19.76 62.6364 20.304C61.8204 20.848 60.8844 21.12 59.8284 21.12C56.5644 21.12 54.9324 18.824 54.9324 14.232C54.9324 13.528 54.9564 12.816 55.0044 12.096H54.0684C53.5884 12.096 53.2604 12.008 53.0844 11.832C52.9244 11.656 52.8444 11.376 52.8444 10.992C52.8444 10.096 53.2044 9.648 53.9244 9.648H55.2924C55.5644 7.888 55.9804 6.28 56.5404 4.824C57.1004 3.368 57.7724 2.208 58.5564 1.344C59.3564 0.480003 60.2124 0.0480042 61.1244 0.0480042C61.7964 0.0480042 62.3244 0.344004 62.7084 0.936004C63.0924 1.528 63.2844 2.272 63.2844 3.168C63.2844 5.648 62.2444 7.808 60.1644 9.648H62.8524C63.1084 9.648 63.2924 9.704 63.4044 9.816C63.5164 9.928 63.5724 10.136 63.5724 10.44C63.5724 11.544 62.6684 12.096 60.8604 12.096H57.9324C57.9004 12.896 57.8844 13.52 57.8844 13.968C57.8844 15.632 58.0764 16.8 58.4604 17.472C58.8604 18.144 59.4844 18.48 60.3324 18.48C61.0204 18.48 61.6284 18.272 62.1564 17.856C62.6844 17.44 63.3084 16.816 64.0284 15.984C64.2204 15.76 64.4364 15.648 64.6764 15.648ZM60.4764 2.352C60.2364 2.352 59.9644 2.656 59.6604 3.264C59.3724 3.856 59.0924 4.688 58.8204 5.76C58.5644 6.816 58.3484 7.992 58.1724 9.288C59.1164 8.472 59.8204 7.56 60.2844 6.552C60.7644 5.528 61.0044 4.6 61.0044 3.768C61.0044 2.824 60.8284 2.352 60.4764 2.352Z" fill="black"/>
<path d="M75.6823 15.696C75.8903 15.696 76.0503 15.8 76.1623 16.008C76.2903 16.2 76.3543 16.448 76.3543 16.752C76.3543 17.12 76.2983 17.408 76.1863 17.616C76.0743 17.824 75.8983 18.008 75.6583 18.168L71.0503 21.264C70.4423 24.576 69.6423 27.176 68.6503 29.064C67.6743 30.968 66.4263 31.92 64.9063 31.92C64.0903 31.92 63.4263 31.664 62.9143 31.152C62.4023 30.656 62.1463 30 62.1463 29.184C62.1463 28.432 62.3143 27.664 62.6503 26.88C63.0023 26.096 63.6423 25.192 64.5703 24.168C65.5143 23.16 66.8423 22 68.5543 20.688L68.6263 20.136C68.7383 19.544 68.8663 18.696 69.0103 17.592C68.6903 18.744 68.2423 19.624 67.6663 20.232C67.0903 20.824 66.4823 21.12 65.8423 21.12C65.1223 21.12 64.5303 20.792 64.0663 20.136C63.6183 19.464 63.3943 18.632 63.3943 17.64C63.3943 16.44 63.4743 15.344 63.6343 14.352C63.7943 13.344 64.0583 12.28 64.4263 11.16C64.5863 10.68 64.8103 10.336 65.0983 10.128C65.3863 9.92 65.8423 9.816 66.4663 9.816C66.8183 9.816 67.0583 9.872 67.1863 9.984C67.3303 10.096 67.4023 10.264 67.4023 10.488C67.4023 10.616 67.3143 11.048 67.1383 11.784C66.9783 12.376 66.8503 12.912 66.7543 13.392C66.6263 14.048 66.5143 14.68 66.4183 15.288C66.3223 15.88 66.2743 16.368 66.2743 16.752C66.2743 17.36 66.4423 17.664 66.7783 17.664C67.0183 17.664 67.3143 17.424 67.6663 16.944C68.0343 16.464 68.4183 15.736 68.8183 14.76C69.2343 13.784 69.6343 12.584 70.0183 11.16C70.1463 10.68 70.3383 10.336 70.5943 10.128C70.8663 9.92 71.2663 9.816 71.7943 9.816C72.1623 9.816 72.4183 9.864 72.5623 9.96C72.7063 10.056 72.7783 10.216 72.7783 10.44C72.7783 10.84 72.5703 12.216 72.1543 14.568L71.5303 18.432C72.7623 17.504 73.9623 16.656 75.1303 15.888C75.3383 15.76 75.5223 15.696 75.6823 15.696ZM65.1703 29.592C65.5703 29.592 66.0183 29.128 66.5143 28.2C67.0103 27.272 67.5063 25.728 68.0023 23.568C66.7703 24.608 65.8743 25.552 65.3143 26.4C64.7703 27.264 64.4983 28.016 64.4983 28.656C64.4983 28.928 64.5463 29.152 64.6423 29.328C64.7543 29.504 64.9303 29.592 65.1703 29.592Z" fill="black"/>
<path d="M87.9291 15.648C88.1371 15.648 88.297 15.744 88.409 15.936C88.537 16.128 88.6011 16.392 88.6011 16.728C88.6011 17.368 88.449 17.864 88.1451 18.216C87.4571 19.064 86.7131 19.76 85.9131 20.304C85.1291 20.848 84.2331 21.12 83.2251 21.12C82.3771 21.12 81.689 20.816 81.161 20.208C80.249 20.8 79.2971 21.104 78.3051 21.12C78.0971 24.208 77.6251 26.784 76.8891 28.848C76.1531 30.928 75.0731 31.968 73.6491 31.968C72.7851 31.968 72.145 31.656 71.729 31.032C71.313 30.408 71.105 29.544 71.105 28.44C71.105 26.872 71.4651 25.04 72.1851 22.944C72.9051 20.864 74.017 18.568 75.521 16.056C75.521 13.72 75.5051 12.096 75.4731 11.184C75.4571 10.72 75.6411 10.352 76.0251 10.08C76.4091 9.808 76.889 9.672 77.465 9.672C77.801 9.672 78.0411 9.744 78.1851 9.888C78.3451 10.016 78.4331 10.28 78.4491 10.68C78.4491 11.08 78.4571 11.376 78.4731 11.568C78.9851 10.928 79.4891 10.472 79.9851 10.2C80.4811 9.912 81.0091 9.768 81.5691 9.768C82.4651 9.768 83.1931 10.128 83.7531 10.848C84.3291 11.568 84.6171 12.512 84.6171 13.68C84.6171 14.528 84.4811 15.352 84.2091 16.152C83.9371 16.952 83.5611 17.68 83.0811 18.336C83.4171 18.432 83.6971 18.48 83.9211 18.48C84.4491 18.48 84.9531 18.288 85.4331 17.904C85.9131 17.52 86.5291 16.88 87.2811 15.984C87.4731 15.76 87.6891 15.648 87.9291 15.648ZM78.425 18.816C79.001 18.688 79.529 18.376 80.009 17.88C80.505 17.368 80.8971 16.744 81.1851 16.008C81.4731 15.256 81.6171 14.472 81.6171 13.656C81.6171 13.176 81.5211 12.816 81.3291 12.576C81.1371 12.32 80.8811 12.192 80.5611 12.192C79.9851 12.192 79.2891 12.8 78.4731 14.016C78.4571 14.72 78.4491 15.752 78.4491 17.112C78.4491 17.848 78.441 18.416 78.425 18.816ZM73.841 29.616C74.273 29.616 74.6331 28.672 74.9211 26.784C75.2091 24.912 75.3931 22.576 75.4731 19.776C74.7851 21.376 74.241 22.904 73.841 24.36C73.441 25.816 73.2411 27.04 73.2411 28.032C73.2411 28.544 73.3051 28.936 73.4331 29.208C73.5451 29.48 73.681 29.616 73.841 29.616Z" fill="black"/>
<path d="M95.2597 16.368C95.4677 16.368 95.6277 16.464 95.7397 16.656C95.8677 16.848 95.9317 17.112 95.9317 17.448C95.9317 18.024 95.7957 18.52 95.5237 18.936C95.0757 19.624 94.4837 20.16 93.7477 20.544C93.0277 20.928 92.1637 21.12 91.1557 21.12C89.6197 21.12 88.4277 20.664 87.5797 19.752C86.7317 18.824 86.3077 17.576 86.3077 16.008C86.3077 14.904 86.5397 13.88 87.0037 12.936C87.4677 11.976 88.1077 11.216 88.9237 10.656C89.7557 10.096 90.6917 9.816 91.7317 9.816C92.6597 9.816 93.4037 10.096 93.9637 10.656C94.5237 11.2 94.8037 11.944 94.8037 12.888C94.8037 13.992 94.4037 14.944 93.6037 15.744C92.8197 16.528 91.4757 17.152 89.5717 17.616C89.9557 18.352 90.6037 18.72 91.5157 18.72C92.1717 18.72 92.7077 18.568 93.1237 18.264C93.5557 17.96 94.0517 17.448 94.6117 16.728C94.8037 16.488 95.0197 16.368 95.2597 16.368ZM91.3237 12.168C90.7317 12.168 90.2277 12.512 89.8117 13.2C89.4117 13.888 89.2117 14.72 89.2117 15.696V15.744C90.1557 15.52 90.8997 15.184 91.4437 14.736C91.9877 14.288 92.2597 13.768 92.2597 13.176C92.2597 12.872 92.1717 12.632 91.9957 12.456C91.8357 12.264 91.6117 12.168 91.3237 12.168Z" fill="black"/>
</svg>
