<svg width="19" height="16" viewBox="0 0 19 16" fill="none" xmlns="http://www.w3.org/2000/svg">
<path d="M17.1429 6.85714H1.14286C0.508929 6.85714 0 7.36607 0 8C0 8.63393 0.508929 9.14286 1.14286 9.14286H1.27679L2.30357 15.0536C2.40179 15.5982 2.875 16 3.42857 16H14.8571C15.4107 16 15.8839 15.5982 15.9821 15.0536L17.0089 9.14286H17.1429C17.7768 9.14286 18.2857 8.63393 18.2857 8C18.2857 7.36607 17.7768 6.85714 17.1429 6.85714ZM4.33036 14C4.3125 14 4.30357 14 4.28571 14C3.99107 14 3.74107 13.7679 3.71429 13.4732L3.42857 9.75893C3.40179 9.44643 3.64286 9.16964 3.95536 9.14286C4.26786 9.11607 4.54464 9.35714 4.57143 9.66964L4.85714 13.3839C4.88393 13.6964 4.64286 13.9732 4.33036 14ZM8 13.4286C8 13.7411 7.74107 14 7.42857 14C7.11607 14 6.85714 13.7411 6.85714 13.4286V9.71429C6.85714 9.40179 7.11607 9.14286 7.42857 9.14286C7.74107 9.14286 8 9.40179 8 9.71429V13.4286ZM11.4286 13.4286C11.4286 13.7411 11.1696 14 10.8571 14C10.5446 14 10.2857 13.7411 10.2857 13.4286V9.71429C10.2857 9.40179 10.5446 9.14286 10.8571 9.14286C11.1696 9.14286 11.4286 9.40179 11.4286 9.71429V13.4286ZM14.5714 13.4732C14.5446 13.7679 14.2946 14 14 14C13.9821 14 13.9732 14 13.9554 14C13.6429 13.9732 13.4018 13.6964 13.4286 13.3839L13.7143 9.66964C13.7411 9.35714 14.0179 9.11607 14.3304 9.14286C14.6429 9.16964 14.8839 9.44643 14.8571 9.75893L14.5714 13.4732ZM4.25 2.60714C4.375 2.08036 4.83036 1.71429 5.36607 1.71429H6.85714C6.85714 2.02679 7.11607 2.28571 7.42857 2.28571H10.8571C11.1696 2.28571 11.4286 2.02679 11.4286 1.71429H12.9196C13.4554 1.71429 13.9107 2.08036 14.0357 2.60714L14.8661 6.28571H16.0446L15.1429 2.34821C14.9107 1.30357 13.9911 0.571429 12.9196 0.571429H11.4286C11.4286 0.258929 11.1696 0 10.8571 0H7.42857C7.11607 0 6.85714 0.258929 6.85714 0.571429H5.36607C4.29464 0.571429 3.375 1.30357 3.14286 2.34821L2.24107 6.28571H3.41964L4.25 2.60714Z" fill="black"/>
</svg>
